<svg width="17" height="17" viewBox="0 0 17 17" fill="none" xmlns="http://www.w3.org/2000/svg">
<g id="chart-line" clip-path="url(#clip0_4_2264)">
<path id="Vector" d="M16.3848 12.9796H2.88483V3.47961C2.88483 3.20336 2.66108 2.97961 2.38483 2.97961H1.38483C1.10858 2.97961 0.884827 3.20336 0.884827 3.47961V13.9796C0.884827 14.5318 1.33264 14.9796 1.88483 14.9796H16.3848C16.6611 14.9796 16.8848 14.7559 16.8848 14.4796V13.4796C16.8848 13.2034 16.6611 12.9796 16.3848 12.9796ZM15.3848 3.97961H11.6955C11.0273 3.97961 10.6926 4.78743 11.1651 5.25993L12.1776 6.27243L9.88483 8.56555L7.59201 6.27274C7.20139 5.88211 6.56826 5.88211 6.17795 6.27274L4.03139 8.4193C3.83608 8.61461 3.83608 8.93118 4.03139 9.12649L4.73826 9.83336C4.93358 10.0287 5.25014 10.0287 5.44545 9.83336L6.88483 8.39368L9.17764 10.6865C9.56826 11.0771 10.2014 11.0771 10.5917 10.6865L13.5917 7.68649L14.6042 8.69899C15.0767 9.17149 15.8845 8.8368 15.8845 8.16868V4.47961C15.8848 4.20336 15.6611 3.97961 15.3848 3.97961Z" fill="#60C5AB"/>
</g>
<defs>
<clipPath id="clip0_4_2264">
<rect width="16" height="16" fill="white" transform="translate(0.884827 0.979614)"/>
</clipPath>
</defs>
</svg>
