<svg width="25" height="24" viewBox="0 0 25 24" fill="none" xmlns="http://www.w3.org/2000/svg">
<g id="event_black_24dp 1" clip-path="url(#clip0_4_18)">
<path id="Vector" d="M19.3104 4H18.3104V2H16.3104V4H8.31042V2H6.31042V4H5.31042C4.20042 4 3.32042 4.9 3.32042 6L3.31042 20C3.31042 21.1 4.20042 22 5.31042 22H19.3104C20.4104 22 21.3104 21.1 21.3104 20V6C21.3104 4.9 20.4104 4 19.3104 4ZM19.3104 20H5.31042V10H19.3104V20ZM19.3104 8H5.31042V6H19.3104V8ZM12.3104 13H17.3104V18H12.3104V13Z" fill="#888888"/>
</g>
<defs>
<clipPath id="clip0_4_18">
<rect width="24" height="24" fill="white" transform="translate(0.310425)"/>
</clipPath>
</defs>
</svg>
