<svg width="25" height="24" viewBox="0 0 25 24" fill="none" xmlns="http://www.w3.org/2000/svg">
<g id="inventory_2_black_24dp 1" clip-path="url(#clip0_4_11)">
<g id="Group">
<g id="Group_2">
<path id="Vector" d="M20.0446 2H4.04459C3.04459 2 2.04459 2.9 2.04459 4V7.01C2.04459 7.73 2.47459 8.35 3.04459 8.7V20C3.04459 21.1 4.14459 22 5.04459 22H19.0446C19.9446 22 21.0446 21.1 21.0446 20V8.7C21.6146 8.35 22.0446 7.73 22.0446 7.01V4C22.0446 2.9 21.0446 2 20.0446 2ZM19.0446 20H5.04459V9H19.0446V20ZM20.0446 7H4.04459V4H20.0446V7Z" fill="#888888"/>
<path id="Vector_2" d="M15.0446 12H9.04459V14H15.0446V12Z" fill="#888888"/>
</g>
</g>
</g>
<defs>
<clipPath id="clip0_4_11">
<rect width="24" height="24" fill="white" transform="translate(0.0445862)"/>
</clipPath>
</defs>
</svg>
