<svg width="17" height="17" viewBox="0 0 17 17" fill="none" xmlns="http://www.w3.org/2000/svg">
<g id="rocket" clip-path="url(#clip0_4_1860)">
<path id="Vector" d="M15.9028 1.09688C15.8827 1.00336 15.8361 0.917632 15.7684 0.849999C15.7008 0.782366 15.6151 0.735705 15.5216 0.715625C14.5153 0.5 13.7281 0.5 12.9437 0.5C9.71874 0.5 7.78436 2.225 6.34093 4.5H3.08468C2.80658 4.50024 2.53403 4.57777 2.29746 4.72396C2.06089 4.87014 1.86961 5.07921 1.74499 5.32781L0.200615 8.41531C0.143581 8.52969 0.116722 8.65674 0.122586 8.78441C0.12845 8.91208 0.166842 9.03614 0.23412 9.1448C0.301398 9.25347 0.395329 9.34314 0.506999 9.4053C0.618668 9.46747 0.744371 9.50006 0.872177 9.5H4.11499L3.4128 10.2022C3.22531 10.3897 3.11998 10.644 3.11998 10.9092C3.11998 11.1744 3.22531 11.4287 3.4128 11.6163L5.00343 13.2072C5.09629 13.3001 5.20654 13.3737 5.32788 13.424C5.44922 13.4743 5.57927 13.5002 5.71061 13.5002C5.84196 13.5002 5.97201 13.4743 6.09335 13.424C6.21469 13.3737 6.32494 13.3001 6.4178 13.2072L7.11999 12.505V15.75C7.11995 15.8778 7.15255 16.0034 7.2147 16.115C7.27685 16.2267 7.36648 16.3206 7.4751 16.3878C7.58372 16.4551 7.70773 16.4935 7.83535 16.4994C7.96298 16.5053 8.09 16.4785 8.20436 16.4216L11.2887 14.8781C11.5378 14.7537 11.7472 14.5624 11.8934 14.3256C12.0397 14.0888 12.1171 13.8159 12.1169 13.5375V10.2747C14.3853 8.82781 16.1169 6.88719 16.1169 3.67812C16.12 2.89062 16.12 2.10313 15.9028 1.09688ZM12.12 5.75C11.8728 5.75 11.6311 5.67669 11.4255 5.53934C11.22 5.40199 11.0597 5.20676 10.9651 4.97835C10.8705 4.74995 10.8458 4.49861 10.894 4.25614C10.9422 4.01366 11.0613 3.79093 11.2361 3.61612C11.4109 3.4413 11.6336 3.32225 11.8761 3.27402C12.1186 3.22579 12.3699 3.25054 12.5983 3.34515C12.8268 3.43976 13.022 3.59998 13.1593 3.80554C13.2967 4.0111 13.37 4.25277 13.37 4.5C13.37 4.83152 13.2383 5.14946 13.0039 5.38388C12.7695 5.6183 12.4515 5.75 12.12 5.75Z" fill="#FC7D88"/>
</g>
<defs>
<clipPath id="clip0_4_1860">
<rect width="16" height="16" fill="white" transform="translate(0.119141 0.5)"/>
</clipPath>
</defs>
</svg>
