<svg width="20" height="19" viewBox="0 0 20 19" fill="none" xmlns="http://www.w3.org/2000/svg">
<g id="search_black_24dp 1" clip-path="url(#clip0_4_25)">
<path id="Vector" d="M12.7708 11.0833H12.1454L11.9238 10.8696C12.6996 9.96708 13.1667 8.79542 13.1667 7.52083C13.1667 4.67875 10.8629 2.375 8.02083 2.375C5.17875 2.375 2.875 4.67875 2.875 7.52083C2.875 10.3629 5.17875 12.6667 8.02083 12.6667C9.29542 12.6667 10.4671 12.1996 11.3696 11.4238L11.5833 11.6454V12.2708L15.5417 16.2213L16.7213 15.0417L12.7708 11.0833ZM8.02083 11.0833C6.04958 11.0833 4.45833 9.49208 4.45833 7.52083C4.45833 5.54958 6.04958 3.95833 8.02083 3.95833C9.99208 3.95833 11.5833 5.54958 11.5833 7.52083C11.5833 9.49208 9.99208 11.0833 8.02083 11.0833Z" fill="white"/>
</g>
<defs>
<clipPath id="clip0_4_25">
<rect width="19" height="19" fill="white" transform="translate(0.5)"/>
</clipPath>
</defs>
</svg>
