<svg width="15" height="17" viewBox="0 0 15 17" fill="none" xmlns="http://www.w3.org/2000/svg">
<g id="shopping-bag" clip-path="url(#clip0_4_1803)">
<path id="Vector" d="M11.8182 5.09619V4.09619C11.8182 1.89057 9.93839 0.0961914 7.62777 0.0961914C5.31711 0.0961914 3.43729 1.89057 3.43729 4.09619V5.09619H0.294434V13.5962C0.294434 14.9769 1.46701 16.0962 2.91348 16.0962H12.3421C13.7885 16.0962 14.9611 14.9769 14.9611 13.5962V5.09619H11.8182ZM5.53253 4.09619C5.53253 2.99338 6.47244 2.09619 7.62777 2.09619C8.78309 2.09619 9.72301 2.99338 9.72301 4.09619V5.09619H5.53253V4.09619ZM10.7706 7.84619C10.3367 7.84619 9.98491 7.51041 9.98491 7.09619C9.98491 6.68197 10.3367 6.34619 10.7706 6.34619C11.2046 6.34619 11.5563 6.68197 11.5563 7.09619C11.5563 7.51041 11.2046 7.84619 10.7706 7.84619ZM4.48491 7.84619C4.05097 7.84619 3.6992 7.51041 3.6992 7.09619C3.6992 6.68197 4.05097 6.34619 4.48491 6.34619C4.91885 6.34619 5.27062 6.68197 5.27062 7.09619C5.27062 7.51041 4.91885 7.84619 4.48491 7.84619Z" fill="#F18200"/>
</g>
<defs>
<clipPath id="clip0_4_1803">
<rect width="14.6667" height="16" fill="white" transform="translate(0.294434 0.0961914)"/>
</clipPath>
</defs>
</svg>
